# Blender 4.1.1
# www.blender.org
o full_card
v -0.661853 -1.000000 -0.012730
v -0.750000 -0.912336 -0.012730
v -0.695585 -0.993327 -0.012730
v -0.724182 -0.974324 -0.012730
v -0.743290 -0.945884 -0.012730
v -0.750000 0.912336 -0.012730
v -0.661853 1.000000 -0.012730
v -0.743290 0.945884 -0.012730
v -0.724182 0.974324 -0.012730
v -0.695585 0.993327 -0.012730
v 0.662370 1.000000 -0.012730
v 0.750000 0.911966 -0.012730
v 0.695905 0.993299 -0.012730
v 0.724334 0.974215 -0.012730
v 0.743330 0.945655 -0.012730
v 0.750000 -0.911966 -0.012730
v 0.662370 -1.000000 -0.012730
v 0.743330 -0.945655 -0.012730
v 0.724334 -0.974215 -0.012730
v 0.695905 -0.993299 -0.012730
v -0.729042 -0.890461 0.013955
v -0.639911 -0.979042 0.013955
v -0.722257 -0.924359 0.013955
v -0.702936 -0.953097 0.013955
v -0.674020 -0.972299 0.013955
v -0.639911 0.979042 0.013955
v -0.729042 0.890461 0.013955
v -0.674020 0.972299 0.013955
v -0.702936 0.953097 0.013955
v -0.722257 0.924359 0.013955
v 0.640509 -0.979042 0.013955
v 0.729042 -0.890033 0.013955
v 0.674389 -0.972266 0.013955
v 0.703111 -0.952972 0.013955
v 0.722302 -0.924095 0.013955
v 0.729042 0.890033 0.013955
v 0.640509 0.979042 0.013955
v 0.722302 0.924095 0.013955
v 0.703111 0.952972 0.013955
v 0.674389 0.972266 0.013955
v -0.661999 -1.000000 0.000807
v -0.750504 -0.911996 0.000807
v -0.695869 -0.993301 0.000807
v -0.724582 -0.974224 0.000807
v -0.743767 -0.945674 0.000807
v -0.750504 0.911996 0.000807
v -0.661999 1.000000 0.000807
v -0.743767 0.945674 0.000807
v -0.724582 0.974224 0.000807
v -0.695869 0.993301 0.000807
v 0.661529 1.000000 0.000807
v 0.749496 0.911610 0.000807
v 0.695193 0.993272 0.000807
v 0.723731 0.974111 0.000807
v 0.742800 0.945436 0.000807
v 0.749496 -0.911610 0.000807
v 0.661529 -1.000000 0.000807
v 0.742800 -0.945436 0.000807
v 0.723731 -0.974111 0.000807
v 0.695193 -0.993272 0.000807
vn -0.0968 -0.9953 -0.0011
vn -0.9944 -0.1003 -0.0345
vn -0.3787 -0.9255 -0.0062
vn -0.7029 -0.7111 -0.0155
vn -0.9215 -0.3875 -0.0264
vn -0.9944 0.1003 -0.0345
vn -0.0968 0.9953 -0.0011
vn -0.9215 0.3875 -0.0264
vn -0.7029 0.7111 -0.0155
vn -0.3787 0.9255 -0.0062
vn 0.1023 0.9947 0.0064
vn 0.9943 0.0989 0.0396
vn 0.3895 0.9208 0.0224
vn 0.7104 0.7028 0.0370
vn 0.9236 0.3809 0.0423
vn 0.9943 -0.0989 0.0396
vn 0.1023 -0.9947 0.0064
vn 0.9236 -0.3809 0.0423
vn 0.7104 -0.7028 0.0370
vn 0.3895 -0.9208 0.0224
vn -0.2747 -0.0155 0.9614
vn -0.0152 -0.2796 0.9600
vn -0.2335 -0.0831 0.9688
vn -0.1603 -0.1618 0.9737
vn -0.0824 -0.2368 0.9681
vn -0.0152 0.2796 0.9600
vn -0.2747 0.0155 0.9614
vn -0.0824 0.2368 0.9681
vn -0.1603 0.1618 0.9737
vn -0.2335 0.0831 0.9688
vn 0.0159 -0.2799 0.9599
vn 0.2850 -0.0156 0.9584
vn 0.0848 -0.2383 0.9675
vn 0.1651 -0.1637 0.9726
vn 0.2416 -0.0842 0.9667
vn 0.2850 0.0156 0.9584
vn 0.0159 0.2799 0.9599
vn 0.2416 0.0842 0.9667
vn 0.1651 0.1637 0.9726
vn 0.0848 0.2383 0.9675
vn -0.0953 -0.8642 0.4940
vn -0.8708 -0.0951 0.4824
vn -0.3387 -0.7929 0.5066
vn -0.6073 -0.6071 0.5125
vn -0.7974 -0.3394 0.4990
vn -0.8708 0.0951 0.4824
vn -0.0953 0.8642 0.4940
vn -0.7974 0.3394 0.4990
vn -0.6073 0.6071 0.5125
vn -0.3387 0.7929 0.5066
vn 0.0931 0.8634 0.4958
vn 0.8567 0.0934 0.5073
vn 0.3339 0.7887 0.5162
vn 0.5987 0.5993 0.5314
vn 0.7838 0.3336 0.5238
vn 0.8567 -0.0934 0.5073
vn 0.0931 -0.8634 0.4958
vn 0.7838 -0.3336 0.5238
vn 0.5987 -0.5993 0.5314
vn 0.3339 -0.7887 0.5162
vt 1.000000 0.955983
vt 0.999900 0.955805
vt 0.999900 0.044195
vt 1.000000 0.044017
vt 0.006140 0.048087
vt 0.004364 0.951913
vt 0.000086 0.955998
vt 0.001867 0.044002
vt 0.941586 1.000000
vt 0.058859 1.000000
vt 0.058997 1.000000
vt 0.941261 1.000000
vt 0.935738 0.003131
vt 0.066721 0.003131
vt 0.060835 0.000000
vt 0.941376 0.000000
vt 0.960085 0.004762
vt 0.989957 0.007542
vt 0.993666 0.029943
vt 0.995825 0.048304
vt 0.995825 0.951696
vt 0.993665 0.970057
vt 0.989949 0.992458
vt 0.960017 0.995238
vt 0.935619 0.996869
vt 0.064888 0.996869
vt 0.040271 0.995246
vt 0.010200 0.992480
vt 0.006520 0.970176
vt 0.004364 0.951913
vt 0.006140 0.048087
vt 0.008367 0.029824
vt 0.012127 0.007520
vt 0.042151 0.004754
vt 0.066721 0.003131
vt 0.064888 0.996869
vt 0.058997 1.000000
vt 0.995825 0.048304
vt 0.999900 0.044195
vt 0.000000 0.058420
vt 0.000000 0.058644
vt 0.000000 0.940997
vt 0.000000 0.941235
vt 0.956168 1.000000
vt 0.955998 1.000000
vt 0.972837 1.000000
vt 0.972942 1.000000
vt 1.000000 1.000000
vt 0.000100 1.000000
vt 0.000007 1.000000
vt 0.036420 1.000000
vt 0.036373 1.000000
vt 0.999998 0.972827
vt 0.999427 0.973538
vt 0.999993 1.000000
vt 0.997862 0.998434
vt 0.963940 1.000000
vt 0.964747 0.999639
vt 0.000000 0.036063
vt 0.000000 0.036202
vt 0.000000 0.000000
vt 0.999900 0.000000
vt 0.999993 0.000000
vt 0.999998 0.027173
vt 0.999898 0.027282
vt 0.044002 1.000000
vt 0.043832 1.000000
vt 0.027058 1.000000
vt 0.027163 1.000000
vt 0.000000 1.000000
vt 0.000000 0.963723
vt 0.000000 0.963576
vt 0.036115 0.000718
vt 0.006228 0.003131
vt 0.002880 0.025547
vt 0.034228 0.999282
vt 0.004276 0.996869
vt 0.001024 0.974453
vt 0.965857 0.000721
vt 0.995825 0.003131
vt 0.998956 0.025642
s 1
f 12/1/12 52/2/52 56/3/56 16/4/16
f 21/5/21 27/6/27 46/7/46 42/8/42
f 11/9/11 7/10/7 47/11/47 51/12/51
f 31/13/31 22/14/22 41/15/41 57/16/57
f 31/13/31 33/17/33 34/18/34 35/19/35 32/20/32 36/21/36 38/22/38 39/23/39 40/24/40 37/25/37 26/26/26 28/27/28 29/28/29 30/29/30 27/30/27 21/31/21 23/32/23 24/33/24 25/34/25 22/35/22
f 26/36/26 37/25/37 51/12/51 47/37/47
f 36/21/36 32/38/32 56/39/56 52/2/52
f 17/40/17 57/41/57 41/42/41 1/43/1
f 6/44/6 46/45/46 48/46/48 8/47/8
f 8/47/8 48/46/48 49/48/49 9/48/9
f 9/49/9 49/50/49 50/51/50 10/52/10
f 10/52/10 50/51/50 47/11/47 7/10/7
f 52/2/52 12/1/12 15/53/15 55/54/55
f 55/54/55 15/53/15 14/55/14 54/56/54
f 54/56/54 14/55/14 13/57/13 53/58/53
f 53/58/53 13/57/13 11/9/11 51/12/51
f 57/41/57 17/40/17 20/59/20 60/60/60
f 60/60/60 20/59/20 19/61/19 59/61/59
f 59/62/59 19/63/19 18/64/18 58/65/58
f 58/65/58 18/64/18 16/4/16 56/3/56
f 42/66/42 2/67/2 5/68/5 45/69/45
f 45/69/45 5/68/5 4/70/4 44/70/44
f 44/70/44 4/70/4 3/71/3 43/72/43
f 43/72/43 3/71/3 1/43/1 41/42/41
f 41/15/41 22/14/22 25/34/25 43/73/43
f 43/73/43 25/34/25 24/33/24 44/74/44
f 44/74/44 24/33/24 23/32/23 45/75/45
f 45/75/45 23/32/23 21/5/21 42/8/42
f 26/36/26 47/37/47 50/76/50 28/27/28
f 28/27/28 50/76/50 49/77/49 29/28/29
f 29/28/29 49/77/49 48/78/48 30/29/30
f 30/29/30 48/78/48 46/7/46 27/6/27
f 51/12/51 37/25/37 40/24/40 53/58/53
f 53/58/53 40/24/40 39/23/39 54/56/54
f 54/56/54 39/23/39 38/22/38 55/54/55
f 55/54/55 38/22/38 36/21/36 52/2/52
f 31/13/31 57/16/57 60/79/60 33/17/33
f 33/17/33 60/79/60 59/80/59 34/18/34
f 34/18/34 59/80/59 58/81/58 35/19/35
f 35/19/35 58/81/58 56/39/56 32/38/32
f 2/67/2 42/66/42 46/45/46 6/44/6
