# Blender 4.1.1
# www.blender.org
o cut_edge
v -0.450000 -1.000000 -0.012730
v -0.450504 -1.000000 0.000807
v -0.437425 -0.979042 0.013955
v 0.750000 0.700000 -0.012730
v 0.749496 0.700000 0.000807
v 0.729042 0.685329 0.013955
v -0.437425 0.685329 0.013955
v -0.662261 -1.000000 -0.012730
v -0.750000 -0.912743 -0.012730
v -0.695838 -0.993358 -0.012730
v -0.724302 -0.974443 -0.012730
v -0.743321 -0.946135 -0.012730
v 0.662777 1.000000 -0.012730
v 0.750000 0.912374 -0.012730
v 0.696156 0.993330 -0.012730
v 0.724453 0.974335 -0.012730
v 0.743361 0.945907 -0.012730
v 0.750000 -0.912374 -0.012730
v 0.662777 -1.000000 -0.012730
v 0.743361 -0.945907 -0.012730
v 0.724453 -0.974335 -0.012730
v 0.696156 -0.993330 -0.012730
v -0.729042 -0.890872 0.013955
v -0.640324 -0.979042 0.013955
v -0.722288 -0.924613 0.013955
v -0.703057 -0.953217 0.013955
v -0.674275 -0.972330 0.013955
v 0.640919 -0.979042 0.013955
v 0.729042 -0.890445 0.013955
v 0.674642 -0.972298 0.013955
v 0.703231 -0.953092 0.013955
v 0.722334 -0.924350 0.013955
v 0.729042 0.890445 0.013955
v 0.640919 0.979042 0.013955
v 0.722334 0.924350 0.013955
v 0.703231 0.953092 0.013955
v 0.674642 0.972298 0.013955
v -0.662409 -1.000000 0.000807
v -0.750504 -0.912404 0.000807
v -0.696122 -0.993332 0.000807
v -0.724702 -0.974344 0.000807
v -0.743798 -0.945925 0.000807
v 0.661937 1.000000 0.000807
v 0.749496 0.912020 0.000807
v 0.695444 0.993303 0.000807
v 0.723850 0.974231 0.000807
v 0.742831 0.945689 0.000807
v 0.749496 -0.912020 0.000807
v 0.661937 -1.000000 0.000807
v 0.742831 -0.945689 0.000807
v 0.723850 -0.974231 0.000807
v 0.695444 -0.993303 0.000807
v -0.463652 0.986349 -0.012730
v -0.429815 1.000000 -0.012730
v -0.448087 0.996002 -0.012730
v -0.430277 1.000000 0.000807
v -0.464161 0.986343 0.000807
v -0.448580 0.996000 0.000807
v -0.417145 0.979042 0.013955
v -0.451047 0.965322 0.013955
v -0.437425 0.959923 0.013955
v -0.435475 0.975023 0.013955
v -0.750000 0.679644 -0.012730
v -0.736390 0.713610 -0.012730
v -0.746014 0.698024 -0.012730
v -0.750504 0.679595 0.000807
v -0.736890 0.713614 0.000807
v -0.746517 0.698011 0.000807
v -0.715480 0.698988 0.013955
v -0.729042 0.664858 0.013955
v -0.709923 0.685329 0.013955
v -0.725070 0.683334 0.013955
vn -0.0000 -1.0000 -0.0000
vn -0.0000 -0.8750 0.4840
vn -0.0000 -0.2765 0.9610
vn 0.9993 -0.0000 0.0372
vn 0.8686 -0.0000 0.4955
vn 0.2818 -0.0000 0.9595
vn -0.0000 -0.0000 1.0000
vn -0.0968 -0.9953 -0.0011
vn -0.9944 -0.1003 -0.0345
vn -0.3787 -0.9255 -0.0062
vn -0.7029 -0.7111 -0.0155
vn -0.9215 -0.3874 -0.0264
vn 0.1023 0.9947 0.0064
vn 0.9943 0.0989 0.0396
vn 0.3895 0.9208 0.0223
vn 0.7104 0.7028 0.0370
vn 0.9236 0.3809 0.0422
vn 0.9943 -0.0989 0.0396
vn 0.1023 -0.9947 0.0064
vn 0.9236 -0.3809 0.0422
vn 0.7104 -0.7028 0.0370
vn 0.3895 -0.9208 0.0223
vn -0.2747 -0.0155 0.9614
vn -0.0152 -0.2796 0.9600
vn -0.2335 -0.0831 0.9688
vn -0.1603 -0.1618 0.9737
vn -0.0824 -0.2368 0.9681
vn 0.0159 -0.2799 0.9599
vn 0.2850 -0.0156 0.9584
vn 0.0848 -0.2383 0.9675
vn 0.1651 -0.1637 0.9726
vn 0.2416 -0.0842 0.9667
vn 0.2850 0.0156 0.9584
vn 0.0159 0.2799 0.9599
vn 0.2416 0.0842 0.9667
vn 0.1651 0.1637 0.9726
vn 0.0848 0.2383 0.9675
vn -0.0953 -0.8643 0.4940
vn -0.8708 -0.0951 0.4824
vn -0.3387 -0.7929 0.5066
vn -0.6073 -0.6071 0.5125
vn -0.7974 -0.3394 0.4990
vn 0.0931 0.8634 0.4958
vn 0.8567 0.0934 0.5073
vn 0.3339 0.7887 0.5162
vn 0.5987 0.5993 0.5314
vn 0.7838 0.3336 0.5237
vn 0.8567 -0.0934 0.5073
vn 0.0931 -0.8634 0.4958
vn 0.7838 -0.3336 0.5237
vn 0.5987 -0.5993 0.5314
vn 0.3339 -0.7887 0.5162
vn -0.6193 0.7848 -0.0229
vn -0.1051 0.9945 -0.0037
vn -0.3723 0.9280 -0.0135
vn -0.1025 0.8701 0.4821
vn -0.5409 0.6832 0.4906
vn -0.3345 0.8086 0.4840
vn -0.0221 0.2829 0.9589
vn -0.1611 0.1998 0.9665
vn -0.0969 0.2523 0.9628
vn -0.9936 0.1069 -0.0367
vn -0.7830 0.6214 -0.0290
vn -0.9263 0.3751 -0.0341
vn -0.8751 0.1010 0.4733
vn -0.6843 0.5384 0.4918
vn -0.8114 0.3308 0.4820
vn -0.1970 0.1572 0.9677
vn -0.2770 0.0205 0.9607
vn -0.2452 0.0916 0.9651
vt 0.000000 0.058149
vt 0.000000 0.058373
vt 0.000000 0.800000
vt 0.000000 0.800000
vt 1.000000 0.956187
vt 0.999900 0.956010
vt 0.999900 0.850000
vt 1.000000 0.850000
vt 0.995825 0.951905
vt 0.995825 0.847808
vt 0.043629 1.000000
vt 0.043798 1.000000
vt 0.839797 1.000000
vt 0.839822 1.000000
vt 0.995825 0.048095
vt 0.999900 0.043990
vt 0.207034 0.007978
vt 0.205719 0.844415
vt 0.022273 0.844415
vt 0.009422 0.834127
vt 0.010959 0.052288
vt 0.015531 0.035331
vt 0.028485 0.020956
vt 0.047847 0.011351
vt 0.070671 0.007978
vt 0.999900 0.043990
vt 1.000000 0.043813
vt 0.936016 0.003131
vt 0.204148 0.003131
vt 0.201542 0.000000
vt 0.941647 0.000000
vt 0.000000 0.941270
vt 0.000000 0.941508
vt 0.205503 0.982414
vt 0.196328 0.985127
vt 0.018521 0.851280
vt 0.022273 0.844415
vt 0.066441 0.003131
vt 0.060562 0.000000
vt 0.931764 0.007978
vt 0.954427 0.011367
vt 0.973638 0.021019
vt 0.986479 0.035464
vt 0.990989 0.052503
vt 0.990989 0.844415
vt 0.193906 0.988361
vt 0.014141 0.853326
vt 0.018521 0.851280
vt 0.196328 0.985127
vt 0.990989 0.947497
vt 0.986473 0.964536
vt 0.973610 0.978981
vt 0.954357 0.988633
vt 0.931647 0.992022
vt 0.219144 0.992022
vt 0.205503 0.982414
vt 0.219144 0.992022
vt 0.931647 0.992022
vt 0.937227 0.995123
vt 0.216259 0.995123
vt 0.941857 1.000000
vt 0.213535 1.000000
vt 0.213463 1.000000
vt 0.941533 1.000000
vt 0.999998 0.972953
vt 0.999898 0.972844
vt 0.999993 1.000000
vt 0.999900 1.000000
vt 0.964107 1.000000
vt 0.963869 1.000000
vt 0.000000 0.035896
vt 0.000000 0.036034
vt 0.000000 0.000000
vt 0.999900 0.000000
vt 0.999993 0.000000
vt 0.999998 0.027047
vt 0.999898 0.027156
vt 0.026933 1.000000
vt 0.027037 1.000000
vt 0.000000 1.000000
vt 0.000000 0.963892
vt 0.000000 0.963745
vt 0.041276 0.003851
vt 0.035956 0.000715
vt 0.006228 0.003131
vt 0.011046 0.007978
vt 0.011965 0.033766
vt 0.007726 0.030057
vt 0.010959 0.052288
vt 0.006727 0.048248
vt 0.956364 0.991306
vt 0.961407 0.994412
vt 0.990989 0.992022
vt 0.995825 0.996869
vt 0.994879 0.970718
vt 0.998960 0.974478
vt 0.966016 0.000718
vt 0.960926 0.003854
vt 0.995825 0.003131
vt 0.998960 0.025522
vt 0.994879 0.029284
vt 0.009422 0.834127
vt 0.005188 0.836483
vt 0.206001 0.991595
vt 0.193800 0.990566
vt 0.010348 0.844433
vt 0.003642 0.837709
vt 0.203266 0.994691
vt 0.205487 0.992022
vt 0.229655 1.000000
vt 0.229570 1.000000
vt 0.199980 1.000000
vt 0.200080 1.000000
vt 0.820503 1.000000
vt 0.820515 1.000000
vt 0.850000 1.000000
vt 0.005741 0.846292
vt 0.009402 0.844415
s 1
f 19/1/19 49/2/49 2/3/2 1/4/1
f 14/5/14 44/6/44 5/7/5 4/8/4
f 33/9/33 6/10/6 5/7/5 44/6/44
f 9/11/9 39/12/39 66/13/65 63/14/62
f 6/10/6 29/15/29 48/16/48 5/7/5
f 3/17/3 7/18/7 71/19/7 70/20/69 23/21/23 25/22/25 26/23/26 27/24/27 24/25/24
f 4/8/4 5/7/5 48/26/48 18/27/18
f 28/28/28 3/29/3 2/30/2 49/31/49
f 1/4/1 2/3/2 38/32/38 8/33/8
f 7/18/7 61/34/7 60/35/60 69/36/68 71/37/7
f 3/29/3 24/38/24 38/39/38 2/30/2
f 28/40/28 30/41/30 31/42/31 32/43/32 29/44/29 6/45/6 7/18/7 3/17/3
f 57/46/57 67/47/66 69/48/68 60/49/60
f 6/45/6 33/50/33 35/51/35 36/52/36 37/53/37 34/54/34 59/55/59 61/56/7 7/18/7
f 59/57/59 34/58/34 43/59/43 56/60/56
f 13/61/13 54/62/54 56/63/56 43/64/43
f 44/6/44 14/5/14 17/65/17 47/66/47
f 47/66/47 17/65/17 16/67/16 46/68/46
f 46/68/46 16/67/16 15/69/15 45/70/45
f 45/70/45 15/69/15 13/61/13 43/64/43
f 49/2/49 19/1/19 22/71/22 52/72/52
f 52/72/52 22/71/22 21/73/21 51/73/51
f 51/74/51 21/75/21 20/76/20 50/77/50
f 50/77/50 20/76/20 18/27/18 48/26/48
f 39/12/39 9/11/9 12/78/12 42/79/42
f 42/79/42 12/78/12 11/80/11 41/80/41
f 41/80/41 11/80/11 10/81/10 40/82/40
f 40/82/40 10/81/10 8/33/8 38/32/38
f 38/39/38 24/38/24 27/83/27 40/84/40
f 40/84/40 27/83/27 26/85/26 41/85/41
f 41/86/41 26/86/26 25/87/25 42/88/42
f 42/88/42 25/87/25 23/89/23 39/90/39
f 43/59/43 34/58/34 37/91/37 45/92/45
f 45/92/45 37/91/37 36/93/36 46/93/46
f 46/94/46 36/94/36 35/95/35 47/96/47
f 47/96/47 35/95/35 33/9/33 44/6/44
f 28/28/28 49/31/49 52/97/52 30/98/30
f 30/98/30 52/97/52 51/99/51 31/99/31
f 31/99/31 51/99/51 50/100/50 32/101/32
f 32/101/32 50/100/50 48/16/48 29/15/29
f 23/89/23 70/102/69 66/103/65 39/90/39
f 59/57/59 62/104/61 61/34/7
f 62/104/61 60/105/60 61/34/7
f 69/48/68 72/106/70 71/19/7
f 72/106/70 70/107/69 71/19/7
f 59/57/59 56/60/56 58/108/58 62/109/61
f 62/109/61 58/108/58 57/46/57 60/49/60
f 53/110/53 57/111/57 58/112/58 55/113/55
f 55/113/55 58/112/58 56/63/56 54/62/54
f 67/114/66 64/115/63 65/116/64 68/116/67
f 68/116/67 65/116/64 63/14/62 66/13/65
f 69/48/68 67/47/66 68/117/67 72/118/70
f 72/118/70 68/117/67 66/103/65 70/102/69
f 53/110/53 64/115/63 67/114/66 57/111/57
