# Blender v2.93.4 OBJ File: 'untitled.blend'
# www.blender.org
mtllib untitled.mtl
o Mesh
v 0.942954 -0.942954 1.000000
v 0.942954 0.942954 1.000000
v -0.942954 -0.942954 1.000000
v 1.000000 0.942954 0.942954
v 0.990417 0.965332 0.965332
v 0.995658 0.964785 0.942954
v 0.995658 0.942954 0.964785
v 0.980391 0.980391 0.964197
v 0.983292 0.983292 0.942954
v 0.980391 0.964197 0.980391
v 0.983292 0.942954 0.983292
v 0.975890 0.975890 0.975890
v 0.942954 1.000000 0.942954
v 0.965332 0.990417 0.965332
v 0.942954 0.995658 0.964785
v 0.964785 0.995658 0.942954
v 0.964197 0.980391 0.980391
v 0.942954 0.983292 0.983292
v 0.965332 0.965332 0.990417
v 0.964785 0.942954 0.995658
v 0.942954 0.964785 0.995658
v 0.964197 0.980391 0.980391
v 0.942954 0.983292 0.983292
v 1.000000 -0.942954 0.942954
v 0.990417 -0.965332 0.965332
v 0.995658 -0.942954 0.964785
v 0.995658 -0.964785 0.942954
v 0.980391 -0.964197 0.980391
v 0.983292 -0.942954 0.983292
v 0.980391 -0.980391 0.964197
v 0.983292 -0.983292 0.942954
v 0.975890 -0.975890 0.975890
v 0.965332 -0.965332 0.990417
v 0.942954 -0.964785 0.995658
v 0.964785 -0.942954 0.995658
v 0.964197 -0.980391 0.980391
v 0.942954 -0.983292 0.983292
v 0.942954 -1.000000 0.942954
v 0.965332 -0.990417 0.965332
v 0.964785 -0.995658 0.942954
v 0.942954 -0.995658 0.964785
v 0.964197 -0.980391 0.980391
v 0.942954 -0.983292 0.983292
v -0.942954 -1.000000 0.942954
v -0.965332 -0.990417 0.965332
v -0.942954 -0.995658 0.964785
v -0.964785 -0.995658 0.942954
v -0.964197 -0.980391 0.980391
v -0.942954 -0.983292 0.983292
v -0.980391 -0.980391 0.964197
v -0.983292 -0.983292 0.942954
v -0.975890 -0.975890 0.975890
v -0.965332 -0.965332 0.990417
v -0.964785 -0.942954 0.995658
v -0.942954 -0.964785 0.995658
v -0.980391 -0.964197 0.980391
v -0.983292 -0.942954 0.983292
v -0.964197 -0.980391 0.980391
v -0.942954 -0.983292 0.983292
v -0.975890 -0.975890 0.975890
v -1.000000 -0.942954 0.942954
v -0.990417 -0.965332 0.965332
v -0.995658 -0.964785 0.942954
v -0.995658 -0.942954 0.964785
v -0.980391 -0.980391 0.964197
v -0.983292 -0.983292 0.942954
v -0.980391 -0.964197 0.980391
v -0.983292 -0.942954 0.983292
v -0.975890 -0.975890 0.975890
v -0.003125 1.001976 0.954689
v -1.000754 0.001811 0.965180
v -0.943502 0.000078 1.000697
v -0.965060 0.550373 0.996102
v -0.459520 0.964917 0.996833
v -0.571882 0.964928 0.996927
v -0.994632 0.514742 0.977595
v -0.548740 1.003116 0.961457
v -0.504904 0.997280 0.975372
v -0.549075 0.997330 0.975695
v -1.003496 0.510223 0.965392
v -0.979672 0.532726 0.988342
v -0.593712 0.947135 1.000328
v -0.464007 0.948624 0.999934
v -0.486806 0.986909 0.983251
v -0.556834 0.986480 0.984155
v -0.466156 0.969604 0.993707
v -0.569339 0.968602 0.994469
v -0.943832 0.566868 1.001115
v -0.598682 0.943082 1.001138
v -0.465364 0.943071 1.001040
v -0.960518 0.550655 0.997006
v -0.520992 0.998277 0.970571
v -0.548992 0.998244 0.971099
v -0.983700 0.528983 0.985643
v -0.997445 0.512191 0.973365
v -0.473869 0.983902 0.987702
v -0.558578 0.983939 0.987965
v -0.698300 0.697483 1.001212
v -0.764451 0.763601 1.001261
v -0.473869 0.983902 0.987702
v -0.558578 0.983939 0.987965
v -0.983700 0.528983 0.985643
v -1.004551 0.527170 0.960554
v -1.004498 0.509826 0.960346
vn -0.0007 0.0000 -1.0000
vn 0.0000 0.0007 -1.0000
vn -0.9569 -0.1903 -0.2195
vn -0.9569 -0.2194 -0.1903
vn -0.8169 -0.5459 -0.1861
vn -0.8131 -0.5547 -0.1769
vn -0.8131 -0.1769 -0.5547
vn -0.8169 -0.1861 -0.5459
vn -0.7165 -0.5127 -0.4731
vn -0.7165 -0.4731 -0.5127
vn -0.2195 -0.9569 -0.1903
vn -0.1903 -0.9569 -0.2195
vn -0.1861 -0.8169 -0.5459
vn -0.1769 -0.8131 -0.5547
vn -0.5547 -0.8131 -0.1769
vn -0.5459 -0.8169 -0.1861
vn -0.4731 -0.7165 -0.5127
vn -0.5127 -0.7165 -0.4731
vn -0.1903 -0.2195 -0.9569
vn -0.2195 -0.1903 -0.9569
vn -0.5459 -0.1861 -0.8169
vn -0.5547 -0.1769 -0.8131
vn -0.1769 -0.5547 -0.8131
vn -0.1861 -0.5459 -0.8169
vn -0.5127 -0.4731 -0.7165
vn -0.4731 -0.5127 -0.7165
vn -0.9569 0.2194 -0.1903
vn -0.9569 0.1903 -0.2195
vn -0.8169 0.1861 -0.5459
vn -0.8131 0.1769 -0.5547
vn -0.8131 0.5547 -0.1769
vn -0.8169 0.5459 -0.1861
vn -0.7165 0.4731 -0.5127
vn -0.7165 0.5127 -0.4731
vn -0.2195 0.1903 -0.9569
vn -0.1903 0.2195 -0.9569
vn -0.1861 0.5459 -0.8169
vn -0.1769 0.5547 -0.8131
vn -0.5547 0.1769 -0.8131
vn -0.5459 0.1861 -0.8169
vn -0.4731 0.5127 -0.7165
vn -0.5127 0.4731 -0.7165
vn -0.1903 0.9569 -0.2195
vn -0.2195 0.9569 -0.1903
vn -0.5459 0.8169 -0.1861
vn -0.5547 0.8131 -0.1769
vn -0.1769 0.8131 -0.5546
vn -0.1861 0.8169 -0.5459
vn -0.5127 0.7165 -0.4731
vn -0.4731 0.7165 -0.5127
vn 0.2195 0.9569 -0.1903
vn 0.1903 0.9569 -0.2195
vn 0.1861 0.8169 -0.5459
vn 0.1769 0.8131 -0.5546
vn 0.5547 0.8131 -0.1769
vn 0.5459 0.8169 -0.1861
vn 0.4731 0.7165 -0.5127
vn 0.5127 0.7165 -0.4731
vn 0.1903 0.2195 -0.9569
vn 0.2195 0.1903 -0.9569
vn 0.5459 0.1861 -0.8169
vn 0.5547 0.1769 -0.8131
vn 0.1769 0.5547 -0.8131
vn 0.1861 0.5459 -0.8169
vn 0.5127 0.4731 -0.7165
vn 0.4731 0.5127 -0.7165
vn 0.9569 0.1903 -0.2195
vn 0.9569 0.2194 -0.1903
vn 0.8169 0.5459 -0.1861
vn 0.8131 0.5547 -0.1769
vn 0.8131 0.1769 -0.5547
vn 0.8169 0.1861 -0.5459
vn 0.7165 0.5127 -0.4731
vn 0.7165 0.4731 -0.5127
vn 0.2383 0.0009 -0.9712
vn 0.1951 0.0003 -0.9808
vn 0.4687 0.0003 -0.8833
vn 0.5556 0.0015 -0.8315
vn 0.5917 0.0015 -0.8062
vn 0.8315 0.0043 -0.5556
vn 0.7960 0.0045 -0.6053
vn 0.9808 0.0054 -0.1951
vn -0.1951 0.0000 -0.9808
vn -0.5556 0.0000 -0.8315
vn -0.8315 0.0000 -0.5556
vn -0.9808 0.0000 -0.1951
vn -0.0075 -0.8924 -0.4511
vn -0.0025 -0.9808 -0.1951
vn -0.0065 -0.6120 -0.7908
vn -0.0021 -0.8315 -0.5556
vn -0.0030 -0.3886 -0.9214
vn -0.0007 -0.5556 -0.8315
vn -0.0008 -0.1868 -0.9824
vn -0.0007 -0.1951 -0.9808
vn 0.0000 0.9808 -0.1951
vn 0.0000 0.8315 -0.5556
vn 0.0000 0.5556 -0.8315
vn 0.0000 0.1951 -0.9808
usemtl Default_OBJ
s off
f 1//1 98//1 90//1 2//1
f 1//2 3//2 72//2 88//2 99//2 98//2
f 4//3 5//3 6//3
f 4//4 7//4 5//4
f 6//5 8//5 9//5
f 6//6 5//6 8//6
f 7//7 10//7 5//7
f 7//8 11//8 10//8
f 5//9 12//9 8//9
f 5//10 10//10 12//10
f 13//11 14//11 15//11
f 13//12 16//12 14//12
f 15//13 17//13 18//13
f 15//14 14//14 17//14
f 16//15 8//15 14//15
f 16//16 9//16 8//16
f 14//17 12//17 17//17
f 14//18 8//18 12//18
f 2//19 19//19 20//19
f 2//20 21//20 19//20
f 20//21 10//21 11//21
f 20//22 19//22 10//22
f 21//23 22//23 19//23
f 21//24 23//24 22//24
f 19//25 12//25 10//25
f 19//26 22//26 12//26
f 24//27 25//27 26//27
f 24//28 27//28 25//28
f 26//29 28//29 29//29
f 26//30 25//30 28//30
f 27//31 30//31 25//31
f 27//32 31//32 30//32
f 25//33 32//33 28//33
f 25//34 30//34 32//34
f 1//35 33//35 34//35
f 1//36 35//36 33//36
f 34//37 36//37 37//37
f 34//38 33//38 36//38
f 35//39 28//39 33//39
f 35//40 29//40 28//40
f 33//41 32//41 36//41
f 33//42 28//42 32//42
f 38//43 39//43 40//43
f 38//44 41//44 39//44
f 40//45 30//45 31//45
f 40//46 39//46 30//46
f 41//47 42//47 39//47
f 41//48 43//48 42//48
f 39//49 32//49 30//49
f 39//50 42//50 32//50
f 44//51 45//51 46//51
f 44//52 47//52 45//52
f 46//53 48//53 49//53
f 46//54 45//54 48//54
f 47//55 50//55 45//55
f 47//56 51//56 50//56
f 45//57 52//57 48//57
f 45//58 50//58 52//58
f 3//59 53//59 54//59
f 3//60 55//60 53//60
f 54//61 56//61 57//61
f 54//62 53//62 56//62
f 55//63 58//63 53//63
f 55//64 59//64 58//64
f 53//65 60//65 56//65
f 53//66 58//66 60//66
f 61//67 62//67 63//67
f 61//68 64//68 62//68
f 63//69 65//69 66//69
f 63//70 62//70 65//70
f 64//71 67//71 62//71
f 64//72 68//72 67//72
f 62//73 69//73 65//73
f 62//74 67//74 69//74
f 3//75 91//75 88//75 72//75
f 3//76 54//76 73//76 91//76
f 54//77 81//77 73//77
f 54//78 57//78 94//78 81//78
f 68//79 76//79 102//79
f 68//80 64//80 95//80 76//80
f 64//81 71//81 80//81 95//81
f 64//82 61//82 104//82 80//82 71//82
f 2//83 35//83 1//83
f 2//83 20//83 35//83
f 20//84 29//84 35//84
f 20//84 11//84 29//84
f 11//85 26//85 29//85
f 11//85 7//85 26//85
f 7//86 24//86 26//86
f 7//86 4//86 24//86
f 13//87 92//87 77//87 70//87
f 13//88 15//88 78//88 92//88
f 15//89 84//89 78//89
f 15//90 18//90 100//90 84//90
f 23//91 86//91 96//91
f 23//92 21//92 74//92 86//92
f 21//93 83//93 74//93
f 21//94 2//94 90//94 83//94
f 44//95 41//95 38//95
f 44//95 46//95 41//95
f 46//96 43//96 41//96
f 46//96 49//96 43//96
f 59//97 34//97 37//97
f 59//97 55//97 34//97
f 55//98 1//98 34//98
f 55//98 3//98 1//98
f 93//87 77//87 92//87
f 78//89 84//89 85//89 79//89
f 96//91 86//91 87//91 97//91
f 74//93 83//93 82//93 75//93
f 103//82 80//82 104//82
f 90//1 98//1 99//1 89//1
f 92//88 78//88 79//88 93//88
f 84//90 100//90 101//90 85//90
f 86//92 74//92 75//92 87//92
f 83//94 90//94 89//94 82//94
