# Blender 4.1.1
# www.blender.org
o Cube
v -0.592220 -1.000000 -0.048150
v -0.592220 1.000000 -0.048150
v -0.577466 -0.978112 0.017268
v -0.577466 0.977880 0.017268
v -0.592220 1.000000 0.000000
v -0.592220 -1.000000 0.000000
v -0.978021 0.605702 0.017268
v -1.000000 0.621190 -0.048150
v 1.000000 0.621190 -0.048150
v 0.977971 0.605702 0.017268
v 1.000000 0.621190 0.000000
v -1.000000 0.621190 0.000000
v -0.978021 -0.877763 0.017268
v -0.877671 -0.978112 0.017268
v -0.948629 -0.948721 0.017268
v -0.902673 -1.000000 -0.048150
v -1.000000 -0.902673 -0.048150
v -0.971493 -0.971493 -0.048150
v 0.877621 -0.978112 0.017268
v 0.977971 -0.877763 0.017268
v 0.948579 -0.948721 0.017268
v 0.977971 0.877530 0.017268
v 0.877621 0.977880 0.017268
v 0.948579 0.948488 0.017268
v 1.000000 -0.902673 -0.048150
v 0.902673 -1.000000 -0.048150
v 0.971493 -0.971493 -0.048150
v 0.902673 1.000000 -0.048150
v 1.000000 0.902673 -0.048150
v 0.971493 0.971493 -0.048150
v -1.000000 -0.902380 0.000000
v -0.902380 -1.000000 0.000000
v -0.971408 -0.971408 0.000000
v 1.000000 -0.902380 0.000000
v 0.902380 -1.000000 0.000000
v 0.971408 -0.971408 0.000000
v 1.000000 0.902380 0.000000
v 0.902380 1.000000 0.000000
v 0.971408 0.971408 0.000000
v -0.796110 0.810595 0.000000
v -0.777744 0.791791 0.017268
v -0.796110 0.810595 -0.048150
vn 1.0000 -0.0000 -0.0000
vn -0.0000 0.6153 0.7883
vn -0.0000 1.0000 -0.0000
vn 0.6169 -0.0000 0.7870
vn -0.0000 -0.0000 1.0000
vn -0.0000 -0.6194 0.7851
vn -0.0000 -1.0000 -0.0000
vn -1.0000 -0.0000 -0.0000
vn -0.6806 0.7327 -0.0000
vn -0.3738 0.4023 0.8357
vn -0.1925 -0.4646 0.8643
vn -0.4641 -0.1922 0.8647
vn 0.3827 -0.9239 0.0023
vn 0.9239 -0.3827 0.0023
vn 0.1913 0.4619 0.8660
vn 0.4625 0.1916 0.8657
vn -0.3827 -0.9239 0.0023
vn -0.9239 -0.3827 0.0023
vn 0.1924 -0.4644 0.8645
vn 0.4635 -0.1920 0.8650
vn 0.3827 0.9239 0.0023
vn 0.9239 0.3827 0.0023
vn -0.6178 -0.0000 0.7863
vn -0.3741 0.4027 0.8354
vn -0.3735 0.4020 0.8360
vt 0.587327 0.500000
vt 0.387203 0.625000
vt 0.387166 0.500000
vt 0.833952 0.625000
vt 0.637826 0.750000
vt 0.637203 0.625000
vt 0.833952 0.500000
vt 0.637203 0.625000
vt 0.637166 0.500000
vt 0.587327 0.625000
vt 0.387826 0.750000
vt 0.387203 0.625000
vt 0.612797 0.625000
vt 0.387826 0.000000
vt 0.375000 0.750000
vt 0.625000 0.750000
vt 0.612174 0.750000
vt 0.587327 0.750000
vt 0.166048 0.625000
vt 0.362174 0.750000
vt 0.166048 0.750000
vt 0.137826 0.750000
vt 0.137203 0.625000
vt 0.166048 0.500000
vt 0.362797 0.625000
vt 0.387203 0.125000
vt 0.587327 0.250000
vt 0.387166 0.250000
vt 0.137166 0.500000
vt 0.710640 0.375000
vt 0.587327 0.000000
vt 0.606164 0.479476
vt 0.125000 0.750000
vt 0.125000 0.675679
vt 0.375000 0.000000
vt 0.387203 0.125000
vt 0.375000 0.074321
vt 0.362834 0.500000
vt 0.375000 0.650340
vt 0.625000 0.650340
vt 0.125000 0.625000
vt 0.125000 0.500000
vt 0.375000 0.125000
vt 0.375000 0.250000
vt 0.362797 0.625000
vt 0.625000 0.500000
vt 0.612834 0.500000
vt 0.587327 0.125000
vt 0.625000 0.958952
vt 0.833952 0.750000
vt 0.375000 0.500000
s 0
f 9/1/1 34/2/1 25/3/1
f 5/4/2 23/5/2 38/6/2
f 2/7/3 38/8/3 28/9/3
f 11/10/4 20/11/4 34/12/4
f 9/1/1 37/13/1 11/10/1
f 13/14/5 21/15/5 24/16/5
f 11/10/4 22/17/4 10/18/4
f 6/19/6 19/20/6 3/21/6
f 6/19/6 14/22/6 32/23/6
f 1/24/7 35/25/7 6/19/7
f 31/26/8 8/27/8 17/28/8
f 1/24/7 32/23/7 16/29/7
f 8/27/9 40/30/9 42/30/9
f 40/30/10 7/31/10 41/32/10
f 32/23/11 15/33/11 33/34/11
f 15/35/12 31/36/12 33/37/12
f 26/38/13 36/39/13 35/25/13
f 36/39/14 25/3/14 34/2/14
f 38/6/15 24/16/15 39/40/15
f 24/16/16 37/13/16 39/40/16
f 16/29/17 33/41/17 18/42/17
f 33/43/18 17/28/18 18/44/18
f 35/45/19 21/15/19 19/20/19
f 21/15/20 34/12/20 20/11/20
f 28/9/21 39/40/21 30/46/21
f 39/40/22 29/47/22 30/46/22
f 13/14/23 12/48/23 31/36/23
f 40/30/24 4/49/24 5/4/24
f 42/30/9 5/4/9 2/7/9
f 9/1/1 11/10/1 34/2/1
f 5/4/2 4/50/2 23/5/2
f 2/7/3 5/4/3 38/8/3
f 11/10/4 10/18/4 20/11/4
f 9/1/1 29/47/1 37/13/1
f 41/32/5 7/31/5 13/14/5
f 13/14/5 15/35/5 14/22/5
f 3/21/5 19/20/5 21/15/5
f 13/14/5 14/22/5 3/21/5
f 4/50/5 41/32/5 13/14/5
f 24/16/5 23/5/5 4/50/5
f 10/18/5 22/17/5 24/16/5
f 21/15/5 20/11/5 10/18/5
f 13/14/5 3/21/5 21/15/5
f 24/16/5 4/50/5 13/14/5
f 21/15/5 10/18/5 24/16/5
f 11/10/4 37/13/4 22/17/4
f 6/19/6 35/45/6 19/20/6
f 6/19/6 3/21/6 14/22/6
f 1/24/7 26/38/7 35/25/7
f 31/26/8 12/48/8 8/27/8
f 1/24/7 6/19/7 32/23/7
f 8/27/9 12/48/9 40/30/9
f 40/30/25 12/48/25 7/31/25
f 32/23/11 14/22/11 15/33/11
f 15/35/12 13/14/12 31/36/12
f 26/38/13 27/51/13 36/39/13
f 36/39/14 27/51/14 25/3/14
f 38/6/15 23/5/15 24/16/15
f 24/16/16 22/17/16 37/13/16
f 16/29/17 32/23/17 33/41/17
f 33/43/18 31/26/18 17/28/18
f 35/45/19 36/39/19 21/15/19
f 21/15/20 36/39/20 34/12/20
f 28/9/21 38/8/21 39/40/21
f 39/40/22 37/13/22 29/47/22
f 13/14/23 7/31/23 12/48/23
f 40/30/10 41/32/10 4/49/10
f 42/30/9 40/30/9 5/4/9
